# xmcd
#
# Track frame offsets: 
#        150
#        773
#        16709
#        20183
#        48028
#        82820
#        84802
#        125705
#        139113
#        142344
#        169638
#        192810
#        208378
#        210424
#        230137
#        267180
#        268333
#        298371
#
# Disc length: 4014 seconds
#
# Revision: 0
# Processed by: cddbd v1.5.2PL0 Copyright (c) Steve Scherf et al.
# Submitted via: ExactAudioCopy v0.99pb4
#
DISCID=010fac12
DTITLE=James Brown - Time for Payback
DYEAR=2010
DGENRE=Blues
TTITLE0=Comment James Brown
TTITLE1=The Payback Part 1
TTITLE2=Comment James Brown
TTITLE3=Give It Up Or Turnit A Loose (Remix)
TTITLE4=Talkin' Loud and Sayin' Nothing (Remix)
TTITLE5=Comment Sting
TTITLE6=Get Up And Feel Like Being A Sex Machine (live)
TTITLE7=It's A Man's Man's Man's
TTITLE8=Introduction to Star Time
TTITLE9=Cold Sweet (live)
TTITLE10=Get Up And Feel Like Being A Sex Machine (live)
TTITLE11=Get Up Get Imto It Get Involved (live)
TTITLE12=Comment Paul Young
TTITLE13=My Thang
TTITLE14=I Can't Stand It '76
TTITLE15=Comment Brian Ferry
TTITLE16=All For One
TTITLE17=Fight Against Drug Abuse (Public Service Announcement)
EXTD=
EXTT0=
EXTT1=
EXTT2=
EXTT3=
EXTT4=
EXTT5=
EXTT6=
EXTT7=
EXTT8=
EXTT9=
EXTT10=
EXTT11=
EXTT12=
EXTT13=
EXTT14=
EXTT15=
EXTT16=
EXTT17=
PLAYORDER=
